<svg width="100" height="80" viewBox="0 0 100 80" fill="none" xmlns="http://www.w3.org/2000/svg">
<path d="M46.0315 0.205566C31.5962 1.74854 18.8568 11.4026 13.3855 24.9974L12.7596 26.5404L11.1647 26.7906C8.07571 27.2702 5.99621 28.3544 3.73501 30.7106C1.17098 33.3795 0 36.2778 0 40.0101C0 43.7425 1.17098 46.6408 3.73501 49.2888C5.99621 51.645 8.58044 52.9795 11.4473 53.2714C12.6789 53.4173 12.7798 53.459 12.9817 54.0637C13.3451 55.1897 15.9091 60.2982 16.7369 61.5909C19.4423 65.8028 23.6416 70.1607 27.5785 72.8713C39.4498 81.0449 53.8044 82.2543 66.7659 76.1658L68.2397 75.4777L66.4429 73.5802L64.646 71.7037L62.8492 72.4126C57.2164 74.6645 51.6643 75.436 46.1325 74.7479C41.5293 74.1849 37.4713 72.913 33.7161 70.8279C25.5798 66.3658 19.8057 59.3599 16.959 50.5607C16.2927 48.4548 16.0505 47.9335 15.8082 48.0378C15.6265 48.1003 14.6978 48.2046 13.7489 48.288C11.1445 48.4756 9.18612 47.7876 7.38927 46.0778C3.45236 42.2829 4.19937 35.6106 8.88328 32.754C10.236 31.9408 11.8309 31.6072 13.7489 31.7323C14.6978 31.8157 15.6265 31.9199 15.8082 32.0033C16.0505 32.0868 16.2725 31.628 16.858 29.7514C18.6549 23.9966 21.6227 19.1383 25.8423 15.0723C27.9823 13.0081 28.9918 12.174 30.829 10.9647C32.1413 10.0889 35.7754 8.08725 35.8561 8.17065C35.8763 8.19151 35.7552 8.77534 35.5937 9.46342C34.6044 13.4043 37.1684 18.4085 41.2063 20.4727C45.9306 22.8498 52.1893 23.1417 56.2271 21.1817C58.0845 20.2642 59.9621 18.4711 60.5678 17.0323C61.981 13.6545 59.5381 9.50512 55.1975 7.87874C52.5325 6.87789 47.4448 7.46172 46.4757 8.90044C45.6076 10.1515 45.7489 11.8613 46.7785 12.6953C47.4044 13.1957 48.111 13.2166 49.282 12.7787C51.947 11.757 55.9243 12.9455 55.9243 14.7596C55.9243 15.5311 54.9552 16.4068 53.4612 16.9698C51.8258 17.6162 47.4852 17.5745 45.4258 16.9072C43.629 16.3234 42.4378 15.6353 41.2467 14.5094C39.5508 12.9038 39.6315 11.2566 41.4889 9.19235C43.2252 7.25321 45.7085 6.14811 49.5243 5.62683C54.834 4.8762 59.7602 5.8979 65.7161 8.94214C74.135 13.2583 80.2321 20.5353 83.1192 29.6472C83.8056 31.8365 83.9268 32.0868 84.2902 32.0033C85.4006 31.6906 87.8435 31.628 88.853 31.8782C93.0321 32.8999 95.7375 37.0076 95.0713 41.3029C94.3848 45.6816 90.6902 48.6216 86.3091 48.2671C85.4208 48.2046 84.5123 48.0795 84.2902 48.0169C83.9268 47.9127 83.8056 48.1212 83.3009 49.7476C82.9981 50.7484 82.6952 51.6658 82.6549 51.791C82.6145 51.9161 83.3817 51.9995 84.7545 52.0203C86.5918 52.0203 87.1167 52.1037 88.2675 52.5833C89.6 53.1046 89.6605 53.1254 90.6902 52.8127C94.8896 51.5407 98.4429 47.7667 99.634 43.3463C100.119 41.574 100.119 38.5089 99.6542 36.6948C98.6649 32.9208 96.1009 29.6889 92.7293 28C91.2959 27.2702 89.0952 26.6863 87.9041 26.6655C87.3388 26.6655 87.2378 26.5612 86.9148 25.6646C86.2082 23.7463 84.4113 20.2434 82.9981 18.0957C74.9426 5.71024 60.4265 -1.31656 46.0315 0.205566Z" fill="#6B5732"/>
<path d="M58.6501 38.3212C57.6406 38.9468 57.257 39.7391 57.2368 41.1987C57.2368 43.2421 58.327 44.4514 60.2248 44.4514C62.1226 44.4514 63.2734 43.2004 63.2532 41.1153C63.2532 39.7808 62.7283 38.7799 61.7794 38.3004C60.8507 37.8208 59.4173 37.8208 58.6501 38.3212Z" fill="#6B5732"/>
<path d="M38.2585 38.7382C37.1481 39.4263 36.8655 39.9267 36.7847 41.3238C36.6636 43.534 37.7942 44.8893 39.7727 44.8893C41.7513 44.8893 42.8819 43.534 42.7607 41.3238C42.68 39.9267 42.256 39.2387 41.1456 38.634C40.3784 38.217 38.9853 38.2795 38.2585 38.7382Z" fill="#6B5732"/>
<path d="M41.7717 49.7058C40.9238 50.1854 40.5806 50.9152 40.5806 52.2705C40.5806 56.7118 44.0329 60.7152 48.4948 61.4866C52.6134 62.2164 56.8127 59.9437 58.549 56.0445C59.3162 54.3347 59.6594 52.1454 59.3566 51.1445C58.872 49.6224 57.2165 48.9552 55.9042 49.7475C55.2985 50.1228 54.7131 51.1445 54.7131 51.8326C54.7131 53.4173 53.5017 55.419 52.0683 56.1905C50.4733 57.0245 48.3938 56.7118 46.9604 55.419C46.0115 54.5433 45.5673 53.6258 45.325 52.0203C45.2645 51.4573 45.0424 50.7692 44.8809 50.4982C44.2348 49.4765 42.8216 49.122 41.7717 49.7058Z" fill="#6B5732"/>
<path d="M72.0757 55.4607C68.4012 56.1071 65.2921 59.6309 65.0498 63.4258C64.8883 66.1781 65.6959 68.5134 67.7552 71.2032C69.6328 73.6428 72.2978 75.8738 76.0126 78.1049L77.8094 79.1891L79.1419 78.4385C88.5097 73.1215 92.5678 66.2198 89.7817 60.3607C87.7224 56.0654 82.8164 54.1471 78.7381 56.0445C77.9104 56.4199 77.8902 56.4199 76.7596 55.9403C75.3867 55.3773 73.5899 55.1896 72.0757 55.4607ZM75.0637 60.6943C75.528 60.9654 76.3356 61.57 76.8807 62.0496L77.8498 62.9254L79.1015 61.7994C80.1716 60.8403 81.3022 60.2356 82.0694 60.2356C82.7154 60.2356 83.8864 60.7569 84.5325 61.3407C87.4195 63.9471 85.2795 68.3883 79.0814 72.6419C77.7085 73.5802 77.7892 73.6011 75.4069 71.7662C73.287 70.1398 71.5306 68.3049 70.6624 66.7828C70.2788 66.0947 69.9154 65.5317 69.8549 65.49C69.7943 65.4692 69.7943 64.8228 69.875 64.093C70.0568 62.133 70.9451 60.9654 72.641 60.4441C73.5697 60.1522 74.1754 60.2147 75.0637 60.6943Z" fill="#6B5732"/>
</svg>
