<svg width="87" height="80" viewBox="0 0 87 80" fill="none" xmlns="http://www.w3.org/2000/svg">
<path d="M41.8088 0.863653C41.5815 1.36365 41.3542 3.8182 41.3542 6.3182C41.3542 10.9546 41.8088 12.2727 43.3997 12.2727C44.5361 12.2727 44.9906 10.5909 44.9906 6.13638C44.9906 1.45456 44.5815 1.62125e-05 43.1724 1.62125e-05C42.6724 1.62125e-05 42.0815 0.409107 41.8088 0.863653Z" fill="#6B5732"/>
<path d="M29.5815 3.77273C28.7179 4.63636 29.0361 5.72727 31.4906 10C33.9906 14.4091 34.5815 15 35.6724 14.0909C36.7179 13.2273 36.5361 12.5 33.8543 8C31.3088 3.68182 30.4906 2.86364 29.5815 3.77273Z" fill="#6B5732"/>
<path d="M54.8998 3.95456C53.5816 5.50002 49.9907 12.1364 49.9907 13.0455C49.9907 14 51.3544 14.6818 52.1271 14.1364C52.3998 14 53.7635 11.8637 55.1725 9.45456C57.3544 5.72729 57.6725 4.86366 57.2635 4.09093C56.6725 2.95456 55.8089 2.90911 54.8998 3.95456Z" fill="#6B5732"/>
<path d="M19.3543 20.3182C16.2634 21.4091 12.4452 25 10.8088 28.4091C9.76336 30.6364 9.53609 31.7727 9.53609 34.4091C9.53609 39.1364 10.8088 42.2727 14.127 45.5909L16.7634 48.2273L15.2634 48.9546C13.8088 49.6364 13.7179 49.5909 11.8088 48.3636C8.44518 46.1364 4.49064 46.8636 2.85427 50.0455C2.17246 51.3636 2.08155 57.1818 2.71791 58.8636C3.08155 59.7727 2.94518 60.4546 2.21791 61.9091C1.71791 62.9091 0.990637 65.0909 0.627001 66.7727C-0.145727 70.5455 -0.236636 78.6818 0.536092 79.4546C0.945183 79.8636 6.89973 80 24.5815 80C37.5361 80 48.3997 79.8636 48.8088 79.7273C49.3997 79.5 49.5361 78.5909 49.5361 74.2727C49.5361 68 49.0361 65.3182 46.9452 60.9091C44.8088 56.4546 40.1725 51.6818 35.8543 49.5909L32.8543 48.1364L35.3088 45.6364C38.8088 42.1364 39.7634 39.8636 39.7634 34.7727C39.7634 29.9546 38.8997 27.6364 35.8543 24.3182C32.8997 21.0909 30.127 19.8636 25.4452 19.6818C22.6725 19.5909 20.9452 19.7727 19.3543 20.3182ZM30.3997 23.9546C34.3088 25.8636 36.7179 29.8636 36.7634 34.5C36.8088 37.9546 36.0361 40.1818 33.8997 42.5909C26.2179 51.3182 12.0361 45.5455 12.8088 34C13.2634 27.1364 17.8997 22.7727 24.8088 22.7273C27.3543 22.7273 28.4906 22.9546 30.3997 23.9546ZM9.58155 50.7273C10.3543 51.0909 11.2634 52.0909 11.627 53C12.1725 54.3182 12.1725 54.7727 11.627 56.0909C11.0361 57.5455 8.99064 59.0909 7.67246 59.0909C6.17246 59.0909 5.44518 57.5909 5.44518 54.6364C5.44518 50.3182 6.67246 49.1818 9.58155 50.7273ZM31.5361 51.3636C40.9452 54.5909 46.3543 62.8182 46.3543 73.9546V76.8182H42.7179H39.127L38.9906 72.3636C38.8543 68.0909 38.8088 67.9546 37.7634 67.8182C36.2179 67.5909 35.8997 68.3636 35.8997 72.8182V76.8182H24.7634H13.627V73.1364C13.627 69.1364 13.1725 67.7273 11.8088 67.7273C10.4452 67.7273 9.99064 69.1364 9.99064 73.1364V76.8182H6.53609H3.03609L3.26336 71.9091C3.44518 68.4546 3.80882 66.3182 4.49064 64.5455C5.44518 62.0455 5.44518 62 7.17246 62.1818C11.2634 62.5909 14.5815 59.5 14.8997 54.9546C15.0815 52.3182 15.127 52.3182 16.9906 51.5909C21.8543 49.7727 26.7634 49.6818 31.5361 51.3636Z" fill="#6B5732"/>
<path d="M56.1725 20.3182C52.9452 21.4091 49.0816 25.1818 47.4907 28.6818C46.3543 31.2273 46.2634 31.8637 46.4452 35.4091C46.6725 39.7727 47.5361 42 50.3088 45L51.8997 46.8182H47.7634C43.4907 46.8182 41.8088 47.2727 41.8088 48.3637C41.8088 50.0455 43.0361 50.2273 55.2179 50.4546L67.127 50.6818L70.9452 52.5909C78.9907 56.5909 83.1725 63.7273 83.1725 73.3637V76.8182H79.7634H76.3543V73.1364C76.3543 69.1364 75.8997 67.7273 74.5361 67.7273C73.1725 67.7273 72.7179 69.1364 72.7179 73.1364V76.8182L63.0816 76.9091L53.3997 77.0455V78.4091V79.7727L68.8543 79.9091C77.3543 79.9546 84.7634 79.9091 85.3543 79.7727C86.3088 79.5455 86.3543 79.3637 86.3543 74.3182C86.3543 68 85.8543 65.3182 83.7634 60.9091C81.627 56.4546 76.9907 51.6818 72.6725 49.5909L69.6725 48.1364L72.127 45.6364C75.627 42.1364 76.5816 39.8637 76.5816 34.7727C76.5816 29.9546 75.7179 27.6364 72.6725 24.3182C69.7179 21.0909 66.9452 19.8637 62.2634 19.6818C59.4907 19.5909 57.7634 19.7728 56.1725 20.3182ZM67.2179 23.9546C71.127 25.8637 73.5361 29.8637 73.5816 34.5C73.627 37.9546 72.8543 40.1818 70.7179 42.5909C63.0361 51.3182 48.8543 45.5455 49.627 34C50.0816 27.1364 54.7179 22.7728 61.627 22.7273C64.1725 22.7273 65.3088 22.9546 67.2179 23.9546Z" fill="#6B5732"/>
</svg>
