<svg width="98" height="80" viewBox="0 0 98 80" fill="none" xmlns="http://www.w3.org/2000/svg">
<path d="M48.508 0.169893C48.3598 0.260329 48.1704 0.449422 48.0798 0.597408C47.9151 0.860494 47.9151 0.992037 47.9315 4.50259C47.9562 8.03781 47.9645 8.13646 48.1292 8.36666C48.4174 8.75307 48.8045 8.96683 49.2163 8.96683C49.727 8.96683 50.1799 8.69552 50.3858 8.26801C50.5423 7.94737 50.5505 7.75828 50.5505 4.43682C50.5505 0.548079 50.5505 0.572743 49.9823 0.194558C49.6116 -0.0520849 48.8951 -0.0685282 48.508 0.169893Z" fill="#6B5732"/>
<path d="M36.6317 1.48529C35.9728 1.66616 35.561 2.11012 35.561 2.63629C35.561 3.06381 37.3482 9.51763 37.5377 9.78894C37.7271 10.052 38.2377 10.2822 38.6413 10.2822C38.946 10.2822 39.3743 10.0274 39.6213 9.69028C39.9672 9.22166 39.9178 8.91747 38.946 5.41514C38.4436 3.61464 37.9742 2.05257 37.9 1.93747C37.6694 1.58395 37.0682 1.37019 36.6317 1.48529Z" fill="#6B5732"/>
<path d="M61.1418 1.73196C60.8617 1.82239 60.6229 2.02793 60.4747 2.30746C60.2852 2.67742 58.6216 8.91749 58.6216 9.25457C58.6216 10.3973 60.2688 10.8742 60.9523 9.93695C61.1665 9.6492 62.8219 3.39269 62.8219 2.88296C62.8219 2.38967 62.5995 2.04437 62.1301 1.83062C61.7348 1.64152 61.5289 1.61686 61.1418 1.73196Z" fill="#6B5732"/>
<path d="M24.8133 6.21264C24.1956 6.54972 23.8744 7.117 24.0226 7.61851C24.1544 8.07069 27.49 13.7681 27.7535 13.9983C28.0747 14.2779 28.4783 14.3601 28.8901 14.2368C29.5325 14.0477 29.9937 13.2831 29.8125 12.7076C29.6807 12.2636 26.2546 6.46751 26.0322 6.30308C25.7439 6.08932 25.1263 6.04821 24.8133 6.21264Z" fill="#6B5732"/>
<path d="M72.4745 6.6319C72.1286 6.81277 72.1862 6.72233 70.2426 10.0602C69.0978 12.0087 68.5542 13.02 68.5295 13.2419C68.4718 13.6777 68.7519 14.2449 69.1472 14.4916C69.5013 14.7136 70.0778 14.73 70.4649 14.5245C70.7944 14.3518 70.8026 14.3518 72.738 10.9893C74.1629 8.53105 74.3523 8.15286 74.3523 7.84045C74.3523 7.38827 74.1876 7.06763 73.8169 6.77988C73.4463 6.50036 72.8616 6.43458 72.4745 6.6319Z" fill="#6B5732"/>
<path d="M37.7438 12.8062C37.0767 12.8638 35.7178 13.1762 35.0507 13.4146C33.4117 14.0148 31.9705 14.952 30.7186 16.2346C29.1538 17.846 28.2066 19.704 27.8525 21.8334C27.6796 22.8775 27.7372 24.8013 27.976 26.1085C28.8079 30.6303 31.4681 35.3165 36.3767 40.9071C38.8063 43.6777 43.2289 48.1337 47.0422 51.6525C48.3434 52.8446 48.5081 52.9433 49.1258 52.8446C49.4635 52.7871 49.3482 52.8857 52.9391 49.4491C62.8139 40.0027 67.1542 34.3875 69.0814 28.616C70.811 23.4283 69.9874 19.0709 66.6766 15.9057C65.9683 15.2233 64.7988 14.393 63.9422 13.9654C60.269 12.1156 55.2781 12.428 52.2225 14.7054C51.1025 15.5357 49.7435 17.032 48.9282 18.3064C48.8376 18.4379 48.8129 18.4461 48.747 18.3392C47.841 16.8923 46.2597 15.2069 45.0902 14.4341C43.1383 13.1515 40.4699 12.5596 37.7438 12.8062ZM40.857 15.5028C43.5831 15.9797 45.2385 17.4102 47.4292 21.1839C47.8493 21.9238 47.9563 22.0471 48.2858 22.2033C48.5823 22.3513 48.7388 22.376 49.0352 22.3266C49.5376 22.2526 49.7847 22.006 50.353 21.0112C51.1601 19.5971 51.959 18.4954 52.7743 17.6733C54.0015 16.4319 54.998 15.881 56.6452 15.544C57.3947 15.3877 57.6994 15.3713 58.9513 15.4042C60.2031 15.4371 60.4914 15.47 61.1338 15.6591C64.2387 16.5716 66.4789 18.8736 67.1542 21.8334C67.3931 22.861 67.3601 24.6615 67.0801 25.9852C66.1824 30.2603 63.4069 34.7739 58.103 40.5782C56.184 42.6747 49.0352 49.7451 48.8293 49.7451C48.6152 49.7451 41.7135 42.9296 39.671 40.7015C34.9354 35.5385 32.0528 31.1647 30.941 27.4239C30.3233 25.3521 30.1586 23.009 30.5292 21.6278C30.908 20.2137 31.6328 18.9641 32.6705 17.9199C33.9635 16.6292 35.6354 15.7659 37.4473 15.4617C38.1227 15.3466 40.1075 15.3713 40.857 15.5028Z" fill="#6B5732"/>
<path d="M1.58806 15.7413C0.69858 15.9633 0.113831 16.399 0.0150002 16.9169C-0.0179434 17.0731 0.00676432 17.5253 0.0561797 17.92C0.451503 20.6906 0.813883 23.6996 1.42334 29.3149C2.09868 35.5467 2.56813 38.5804 3.27642 41.3264C5.04714 48.1666 8.48151 53.1899 15.0949 58.5996C16.7833 59.9726 20.193 62.4061 21.7248 63.3352L22.3508 63.7133L22.9108 66.3195C23.3473 68.3173 23.4544 68.934 23.372 68.9833C23.3144 69.0162 23.092 69.0737 22.8779 69.0984C22.3508 69.1724 21.5848 69.4355 21.2142 69.6821C20.613 70.0767 20.6048 69.9616 21.6754 74.8616C22.3178 77.8131 22.672 79.2765 22.779 79.4245C23.0261 79.7534 23.4461 80 23.7756 80C24.0474 80 24.5086 79.9096 27.2017 79.3423C27.6135 79.2601 29.6148 78.8161 31.6491 78.3639C35.0176 77.6158 37.0601 77.1554 41.7381 76.0948C46.0702 75.1165 45.8396 75.1905 46.1855 74.6807C46.3173 74.4916 46.3749 74.2861 46.3749 74.0559C46.3667 73.7435 44.7277 66.0893 44.5301 65.4727C44.4806 65.3247 44.3159 65.0945 44.1594 64.9548C43.8959 64.7328 43.8218 64.7081 43.2782 64.7081C42.9323 64.7081 42.4299 64.7821 42.0758 64.8726C41.7463 64.9712 41.4581 65.0288 41.4498 65.0205C41.4251 64.9959 41.3263 64.3217 40.7498 60.2932C40.5686 59.0189 40.3298 57.4815 40.2062 56.8813C39.0614 50.9537 37.0272 47.476 33.2139 44.9356C32.1762 44.245 30.389 43.3735 29.063 42.9131L28.0418 42.5596L27.21 41.573C24.6404 38.5393 22.4331 36.2291 20.9836 35.0616C19.5259 33.886 17.714 32.8172 16.5609 32.4472C16.1409 32.3075 16.1327 32.2992 16.0503 31.88C15.5973 29.5286 15.342 28.3283 15.1032 27.4404C14.3372 24.6698 13.2583 22.8035 11.8829 21.858C11.1582 21.3565 10.6228 21.1592 9.70042 21.0359L8.97566 20.9372L8.70388 20.3124C8.04501 18.7832 7.06493 17.3527 6.2084 16.6785C5.31892 15.9633 4.1659 15.618 2.75756 15.6344C2.33753 15.6344 1.81866 15.6837 1.58806 15.7413ZM3.88588 18.3475C5.43423 18.923 6.67785 21.3483 7.50967 25.3932C7.86382 27.1197 8.03677 28.2132 8.50622 31.658C8.92625 34.7575 9.04155 35.3494 9.33804 35.7934C10.0216 36.8293 18.9988 46.5634 19.5176 46.8347C20.473 47.328 21.7084 46.2017 21.2883 45.2233C21.2225 45.0671 19.1635 42.7569 16.7174 40.0849C11.7347 34.6588 12.1053 35.185 13.0442 34.8643C14.0572 34.5108 15.0538 34.5848 16.3056 35.1028C18.3234 35.9413 20.4153 37.7829 24.0309 41.8937C26.4523 44.6478 26.7405 44.9191 27.3747 45.1082C28.9313 45.5522 31.0314 46.5881 32.2833 47.5253C35.5612 49.9835 37.1507 53.3626 38.0649 59.8164C38.312 61.5593 38.7649 64.9794 38.7979 65.3165L38.8143 65.5549L32.4315 66.9772C28.923 67.7583 26.0405 68.3913 26.0322 68.3749C26.0158 68.3584 25.711 67.0101 25.3486 65.3658C24.9945 63.7298 24.6404 62.2993 24.5662 62.1842C24.4921 62.0773 24.2615 61.8882 24.0556 61.7649C23.372 61.362 21.206 59.9315 20.0777 59.134C13.8513 54.7438 10.0957 50.7975 7.85558 46.2839C6.53784 43.6366 5.70601 40.9317 5.05537 37.1663C4.68476 35.0288 4.50357 33.5818 3.68821 26.1085C3.5482 24.8424 3.29289 22.6144 3.1117 21.151C2.93051 19.6876 2.78226 18.4215 2.78226 18.331C2.78226 18.1995 2.83992 18.1748 3.1117 18.1748C3.28465 18.1748 3.6388 18.2488 3.88588 18.3475ZM10.9852 24.53C11.7017 25.3028 12.2947 26.6593 12.7807 28.6243C13.0442 29.7095 13.4231 31.7895 13.3901 31.9622C13.3736 32.0526 13.2007 32.1266 12.8465 32.2006C12.5583 32.2581 12.1218 32.3979 11.8665 32.5212C11.6112 32.6363 11.3888 32.7103 11.3641 32.6856C11.3394 32.6692 11.1829 31.6169 11.0099 30.3672C10.6311 27.5637 10.2193 25.163 9.89809 23.8887L9.84043 23.6585L10.1946 23.8558C10.384 23.9627 10.7464 24.2669 10.9852 24.53ZM42.9488 70.2329C43.2782 71.7375 43.517 72.9871 43.4841 73.02C43.4265 73.0693 25.0521 77.1225 24.8874 77.1225C24.8051 77.1225 23.5862 71.7046 23.652 71.6388C23.7097 71.5813 25.1592 71.2195 26.0899 71.0304C26.5676 70.94 29.549 70.274 32.7198 69.5588C35.8906 68.8435 38.9873 68.1611 39.5968 68.0378C40.2062 67.9145 41.0216 67.7501 41.4087 67.6678C41.7957 67.5856 42.1664 67.5116 42.2322 67.5116C42.3311 67.5034 42.4876 68.0707 42.9488 70.2329Z" fill="#6B5732"/>
<path d="M93.3854 15.7577C91.59 16.2346 89.8028 18.1584 88.8969 20.5673L88.7486 20.9537L88.1721 21.0112C85.3307 21.2907 83.5271 23.5105 82.3823 28.1556C82.1023 29.2655 81.5999 31.8553 81.5999 32.1513C81.5999 32.2581 81.4763 32.3404 81.1716 32.439C80.0762 32.8008 78.3385 33.7873 77.0372 34.815C75.4312 36.0647 73.7263 37.7829 71.5768 40.3069C70.9508 41.0469 70.2179 41.869 69.9461 42.1485C69.4849 42.6171 69.3943 42.6747 68.546 42.9624C67.4506 43.3406 66.034 43.9901 65.0869 44.5656C60.9278 47.0732 58.6711 50.7317 57.4769 56.8978C57.2463 58.0899 57.0404 59.4957 56.5215 63.3927C56.4062 64.2724 56.2909 65.0041 56.2745 65.0206C56.258 65.037 56.0274 64.9877 55.7638 64.9137C55.5003 64.8397 55.0061 64.7575 54.6602 64.7328C53.9272 64.6753 53.499 64.8315 53.3013 65.2179C53.1531 65.5056 51.2917 73.6448 51.2917 74.0148C51.2917 74.3601 51.6541 74.952 51.9589 75.1165C52.0989 75.1822 52.7001 75.3549 53.2931 75.4864C53.8943 75.6262 54.7673 75.8235 55.245 75.9304C55.7227 76.0373 56.6863 76.2592 57.3863 76.4155C58.0864 76.5717 59.4947 76.8923 60.516 77.1225C67.8953 78.7997 73.1004 79.926 73.7346 79.9753C74.1546 80.0082 74.2699 79.9918 74.5088 79.8191C74.6652 79.7205 74.8547 79.5396 74.9453 79.4245C75.11 79.2025 76.9136 71.162 76.9219 70.6029C76.9301 70.1343 76.7572 69.8219 76.3783 69.5999C76.0406 69.4026 74.9535 69.0655 74.6405 69.0655C74.2123 69.0573 74.2123 69.0737 74.8053 66.3195L75.3735 63.7133L76.3207 63.0885C84.8119 57.4897 89.564 52.6966 92.3477 46.9252C94.349 42.7734 95.2385 38.8517 96.2598 29.5615C96.8198 24.4724 97.0834 22.2691 97.421 19.6958C97.6022 18.3393 97.734 17.1225 97.7093 16.9909C97.6434 16.6785 97.3057 16.2346 97.0092 16.0866C96.2021 15.6673 94.3408 15.5029 93.3854 15.7577ZM94.942 18.331C94.942 18.4132 94.8514 19.1614 94.7361 19.9918C94.4561 22.1129 94.2502 23.8558 93.9125 27.1362C93.1384 34.5684 92.6607 37.7912 91.8536 40.8249C89.7617 48.7668 85.2484 54.1272 74.9947 60.8605C74.064 61.4771 73.2322 62.0691 73.1581 62.1842C73.0839 62.2993 72.7216 63.7298 72.3427 65.3741C71.6674 68.3009 71.6509 68.3667 71.4615 68.342C71.0909 68.3009 58.9923 65.5878 58.9347 65.5385C58.8688 65.481 59.3794 61.4031 59.7418 59.0353C60.4748 54.2998 61.5207 51.5867 63.5221 49.2518C64.9798 47.5418 67.2365 46.1359 69.9049 45.2562C70.852 44.9438 70.852 44.9438 71.5109 44.2779C71.8733 43.9161 72.6392 43.0858 73.1992 42.4281C76.6254 38.4489 78.7832 36.4511 80.768 35.4152C82.4317 34.5437 83.7412 34.4204 84.9931 35.0123L85.4707 35.2343L81.0563 40.0027C78.6267 42.6254 76.5677 44.878 76.4854 45.0178C76.1724 45.5111 76.3536 46.2757 76.8725 46.6785C77.2101 46.9334 77.7866 47.0156 78.149 46.8676C78.3055 46.8019 80.1421 44.8616 83.3047 41.4086C85.9978 38.4653 88.2545 35.9824 88.3204 35.8838C88.551 35.5467 88.7816 34.3464 89.2593 31.0003C90.1323 24.9493 90.6841 22.6062 91.7547 20.5179C92.496 19.071 93.5666 18.1913 94.5961 18.183C94.8844 18.1748 94.942 18.1995 94.942 18.331ZM87.6533 24.5958C87.365 25.8125 87.0026 27.983 86.6732 30.4905C86.5167 31.6826 86.3685 32.6774 86.352 32.7021C86.3273 32.7185 86.1708 32.6692 85.9896 32.5788C85.586 32.365 84.8448 32.1513 84.5483 32.1513C84.4083 32.1513 84.293 32.0937 84.2601 32.0197C84.2024 31.8635 84.6719 29.4382 84.9931 28.2872C85.6355 25.9687 86.4179 24.5629 87.4391 23.9134C87.645 23.7901 87.818 23.6996 87.8344 23.7161C87.8509 23.7243 87.7686 24.1271 87.6533 24.5958ZM63.9009 69.345C72.5898 71.2442 73.9981 71.5648 74.064 71.6306C74.1134 71.6717 72.9028 77.0403 72.8286 77.1061C72.7792 77.1554 54.3308 73.094 54.2402 73.02C54.1743 72.9625 55.3356 67.5034 55.4097 67.5034C55.4344 67.5034 59.2559 68.3338 63.9009 69.345Z" fill="#6B5732"/>
</svg>
