<svg width="80" height="80" viewBox="0 0 80 80" fill="none" xmlns="http://www.w3.org/2000/svg">
<path d="M75.3102 26.4148C75.586 26.2771 76.0001 26.0023 76.2759 25.7275L78.8967 23.1169C79.5866 22.4297 80 21.4683 80 20.3693C80 19.2702 79.5859 18.3081 78.8967 17.6217L62.3448 1.13367C60.8274 -0.37789 58.3449 -0.37789 56.8275 1.13367L54.2068 3.74428C53.931 4.01904 53.6552 4.2938 53.5169 4.7063L50.3446 1.54553C48.8272 0.0339735 46.3447 0.0339735 44.8273 1.54553L42.2066 4.15614C40.6892 5.6677 40.6892 8.14056 42.2066 9.65209L51.5862 18.9954L18.8959 51.6957L9.51633 42.3523C7.99891 40.8408 5.51647 40.8408 3.99909 42.3523L1.37907 44.8259C-0.138351 46.3375 -0.138351 48.8103 1.37907 50.3219L4.6898 53.6198C4.41397 53.7575 3.99988 54.0323 3.72405 54.3071L1.10333 56.9177C0.413409 57.6049 0 58.5663 0 59.6653C0 60.7644 0.414092 61.7265 1.10333 62.4129L17.6552 78.9009C18.3451 79.5882 19.4484 80 20.4135 80C21.3792 80 22.3444 79.5875 23.1718 78.9009L25.7925 76.2903C26.0683 76.0156 26.3441 75.7408 26.4824 75.3283L29.7931 78.6263C30.4831 79.3135 31.5863 79.7253 32.5514 79.7253C33.5172 79.7253 34.4823 79.3128 35.3097 78.6263L37.9304 76.0157C39.4478 74.5041 39.4478 72.0312 37.9304 70.5197L28.5508 61.1764L61.2411 28.6123L70.6207 37.9556C71.3106 38.6429 72.4139 39.0547 73.379 39.0547C74.3447 39.0547 75.3099 38.6422 76.1372 37.9556L78.758 35.345C80.2754 33.8334 80.2754 31.3606 78.758 29.8491L75.3102 26.4148ZM55.8611 6.62883C55.8611 6.35407 55.9993 6.0793 56.1369 5.80452L58.7576 3.19392C59.0335 3.05687 59.3093 2.91915 59.5851 2.91915C59.861 2.91915 60.1368 3.05688 60.4126 3.19392L76.9645 19.6819C77.2404 19.9567 77.2404 20.2314 77.2404 20.5062C77.2404 20.781 77.1021 21.0558 76.9645 21.3305L74.3438 23.9411C73.9297 24.3536 73.2405 24.3536 72.6888 23.9411L56.1369 7.45313C55.9987 7.17837 55.8611 6.90361 55.8611 6.62883ZM24.1362 73.4047C24.1362 73.6795 23.998 73.9542 23.8604 74.229L21.2397 76.8396C20.8256 77.2521 20.1364 77.2521 19.5847 76.8396L3.03282 60.3516C2.89524 60.0768 2.75699 59.8021 2.75699 59.5273C2.75699 59.2525 2.89525 58.9778 3.03282 58.703L5.65354 56.0924C5.92937 55.8176 6.2052 55.8176 6.48104 55.8176C6.75689 55.8176 7.0327 55.9553 7.30854 56.0924L23.8604 72.5804C23.9987 72.8552 24.1362 73.1299 24.1362 73.4047ZM35.7225 72.3056C36.1366 72.7181 36.1366 73.4047 35.7225 73.9542L33.1018 76.5648C32.6877 76.9773 31.9984 76.9773 31.4468 76.5648L3.30865 48.5353C2.89455 48.1228 2.89455 47.4362 3.30865 46.8867L5.92937 44.2761C6.2052 44.0013 6.48102 44.0013 6.75687 44.0013C7.03271 44.0013 7.30852 44.1391 7.58437 44.2761L35.7225 72.3056ZM26.3436 59.1149L20.8264 53.6189L53.5167 21.0548L59.0339 26.5508L26.3436 59.1149ZM76.5504 33.2846L73.9297 35.8952C73.5156 36.3077 72.8263 36.3077 72.2747 35.8952L44.1366 7.86564C43.7225 7.45315 43.7225 6.76658 44.1366 6.21705L46.7573 3.60644C47.0331 3.33168 47.3089 3.33168 47.5848 3.33168C47.8606 3.33168 48.1364 3.4694 48.4123 3.60644L76.5504 31.636C77.1034 32.0485 77.1034 32.7357 76.5511 33.2852L76.5504 33.2846Z" fill="#6B5732"/>
</svg>
